<?xml version="1.0" encoding="UTF-8" standalone="no"?><svg xmlns="http://www.w3.org/2000/svg" xmlns:xlink="http://www.w3.org/1999/xlink" contentScriptType="application/ecmascript" contentStyleType="text/css" height="399px" preserveAspectRatio="none" style="width:437px;height:399px;" version="1.1" viewBox="0 0 437 399" width="437px" zoomAndPan="magnify"><defs><filter height="300%" id="f1olbtpn5cdva0" width="300%" x="-1" y="-1"><feGaussianBlur result="blurOut" stdDeviation="2.0"/><feColorMatrix in="blurOut" result="blurOut2" type="matrix" values="0 0 0 0 0 0 0 0 0 0 0 0 0 0 0 0 0 0 .4 0"/><feOffset dx="4.0" dy="4.0" in="blurOut2" result="blurOut3"/><feBlend in="SourceGraphic" in2="blurOut3" mode="normal"/></filter></defs><g><!--class test--><rect fill="#FEFECE" filter="url(#f1olbtpn5cdva0)" height="125.7305" id="test" style="stroke: #A80036; stroke-width: 1.5;" width="323" x="9" y="116"/><ellipse cx="155.75" cy="132" fill="#A9DCDF" rx="11" ry="11" style="stroke: #A80036; stroke-width: 1.0;"/><path d="M155.8633,127.3481 L154.7095,132.4199 L157.0254,132.4199 Z M154.3691,125.1069 L157.3657,125.1069 L160.7109,137.5 L158.2622,137.5 L157.4985,134.437 L154.2197,134.437 L153.4727,137.5 L151.0239,137.5 Z "/><text fill="#000000" font-family="sans-serif" font-size="12" font-style="italic" lengthAdjust="spacingAndGlyphs" textLength="21" x="176.25" y="136.5352">test</text><line style="stroke: #A80036; stroke-width: 1.5;" x1="10" x2="331" y1="148" y2="148"/><rect fill="none" height="6" style="stroke: #C82930; stroke-width: 1.0;" width="6" x="17" y="156.9775"/><text fill="#000000" font-family="sans-serif" font-size="11" lengthAdjust="spacingAndGlyphs" textLength="51" x="29" y="162.6348">uint256 a</text><ellipse cx="20" cy="172.9326" fill="none" rx="3" ry="3" style="stroke: #038048; stroke-width: 1.0;"/><text fill="#000000" font-family="sans-serif" font-size="11" lengthAdjust="spacingAndGlyphs" textLength="31" x="29" y="175.5898">uint b</text><polygon fill="none" points="20,181.8877,16,187.8877,24,187.8877" style="stroke: #1963A0; stroke-width: 1.0;"/><text fill="#000000" font-family="sans-serif" font-size="11" lengthAdjust="spacingAndGlyphs" textLength="30" x="29" y="188.5449">uint c</text><ellipse cx="20" cy="198.8428" fill="none" rx="3" ry="3" style="stroke: #038048; stroke-width: 1.0;"/><text fill="#000000" font-family="sans-serif" font-size="11" lengthAdjust="spacingAndGlyphs" textLength="87" x="29" y="201.5">uint256[] vector</text><line style="stroke: #A80036; stroke-width: 1.5;" x1="10" x2="331" y1="207.8203" y2="207.8203"/><ellipse cx="20" cy="219.7979" fill="#84BE84" rx="3" ry="3" style="stroke: #038048; stroke-width: 1.0;"/><text fill="#000000" font-family="sans-serif" font-size="11" lengthAdjust="spacingAndGlyphs" textLength="245" x="29" y="222.4551">f()=&gt;(uint256[],uint256,testClass,testClass[])</text><polygon fill="#FFFF44" points="20,227.7529,24,231.7529,20,235.7529,16,231.7529" style="stroke: #B38D22; stroke-width: 1.0;"/><text fill="#000000" font-family="sans-serif" font-size="11" font-style="italic" lengthAdjust="spacingAndGlyphs" textLength="297" x="29" y="235.4102">g(uint256[],uint256,testClass,testClass[])=&gt;(testClass)</text><!--class testClass--><rect fill="#FEFECE" filter="url(#f1olbtpn5cdva0)" height="48" id="testClass" style="stroke: #A80036; stroke-width: 1.5;" width="83" x="6" y="8"/><ellipse cx="21" cy="24" fill="#ADD1B2" rx="11" ry="11" style="stroke: #A80036; stroke-width: 1.0;"/><path d="M23.9731,29.6431 Q23.3921,29.9419 22.7529,30.0913 Q22.1138,30.2407 21.4082,30.2407 Q18.9014,30.2407 17.5815,28.5889 Q16.2617,26.937 16.2617,23.8159 Q16.2617,20.6865 17.5815,19.0347 Q18.9014,17.3828 21.4082,17.3828 Q22.1138,17.3828 22.7612,17.5322 Q23.4087,17.6816 23.9731,17.9805 L23.9731,20.7031 Q23.3423,20.1221 22.7488,19.8523 Q22.1553,19.5825 21.5244,19.5825 Q20.1797,19.5825 19.4949,20.6492 Q18.8101,21.7158 18.8101,23.8159 Q18.8101,25.9077 19.4949,26.9744 Q20.1797,28.041 21.5244,28.041 Q22.1553,28.041 22.7488,27.7712 Q23.3423,27.5015 23.9731,26.9204 Z "/><text fill="#000000" font-family="sans-serif" font-size="12" lengthAdjust="spacingAndGlyphs" textLength="51" x="35" y="28.5352">testClass</text><line style="stroke: #A80036; stroke-width: 1.5;" x1="7" x2="88" y1="40" y2="40"/><line style="stroke: #A80036; stroke-width: 1.5;" x1="7" x2="88" y1="48" y2="48"/><!--class OtherContract--><rect fill="#FEFECE" filter="url(#f1olbtpn5cdva0)" height="48" id="OtherContract" style="stroke: #A80036; stroke-width: 1.5;" width="112" x="314.5" y="8"/><ellipse cx="329.5" cy="24" fill="#ADD1B2" rx="11" ry="11" style="stroke: #A80036; stroke-width: 1.0;"/><path d="M332.4731,29.6431 Q331.8921,29.9419 331.2529,30.0913 Q330.6138,30.2407 329.9082,30.2407 Q327.4014,30.2407 326.0815,28.5889 Q324.7617,26.937 324.7617,23.8159 Q324.7617,20.6865 326.0815,19.0347 Q327.4014,17.3828 329.9082,17.3828 Q330.6138,17.3828 331.2612,17.5322 Q331.9087,17.6816 332.4731,17.9805 L332.4731,20.7031 Q331.8423,20.1221 331.2488,19.8523 Q330.6553,19.5825 330.0244,19.5825 Q328.6797,19.5825 327.9949,20.6492 Q327.3101,21.7158 327.3101,23.8159 Q327.3101,25.9077 327.9949,26.9744 Q328.6797,28.041 330.0244,28.041 Q330.6553,28.041 331.2488,27.7712 Q331.8423,27.5015 332.4731,26.9204 Z "/><text fill="#000000" font-family="sans-serif" font-size="12" lengthAdjust="spacingAndGlyphs" textLength="80" x="343.5" y="28.5352">OtherContract</text><line style="stroke: #A80036; stroke-width: 1.5;" x1="315.5" x2="425.5" y1="40" y2="40"/><line style="stroke: #A80036; stroke-width: 1.5;" x1="315.5" x2="425.5" y1="48" y2="48"/><!--class AnotherContract--><rect fill="#FEFECE" filter="url(#f1olbtpn5cdva0)" height="48" id="AnotherContract" style="stroke: #A80036; stroke-width: 1.5;" width="125" x="124" y="8"/><ellipse cx="139" cy="24" fill="#ADD1B2" rx="11" ry="11" style="stroke: #A80036; stroke-width: 1.0;"/><path d="M141.9731,29.6431 Q141.3921,29.9419 140.7529,30.0913 Q140.1138,30.2407 139.4082,30.2407 Q136.9014,30.2407 135.5815,28.5889 Q134.2617,26.937 134.2617,23.8159 Q134.2617,20.6865 135.5815,19.0347 Q136.9014,17.3828 139.4082,17.3828 Q140.1138,17.3828 140.7612,17.5322 Q141.4087,17.6816 141.9731,17.9805 L141.9731,20.7031 Q141.3423,20.1221 140.7488,19.8523 Q140.1553,19.5825 139.5244,19.5825 Q138.1797,19.5825 137.4949,20.6492 Q136.8101,21.7158 136.8101,23.8159 Q136.8101,25.9077 137.4949,26.9744 Q138.1797,28.041 139.5244,28.041 Q140.1553,28.041 140.7488,27.7712 Q141.3423,27.5015 141.9731,26.9204 Z "/><text fill="#000000" font-family="sans-serif" font-size="12" lengthAdjust="spacingAndGlyphs" textLength="93" x="153" y="28.5352">AnotherContract</text><line style="stroke: #A80036; stroke-width: 1.5;" x1="125" x2="248" y1="40" y2="40"/><line style="stroke: #A80036; stroke-width: 1.5;" x1="125" x2="248" y1="48" y2="48"/><!--class testCon2--><rect fill="#FEFECE" filter="url(#f1olbtpn5cdva0)" height="86.8652" id="testCon2" style="stroke: #A80036; stroke-width: 1.5;" width="122" x="216.5" y="302"/><ellipse cx="249.05" cy="318" fill="#A9DCDF" rx="11" ry="11" style="stroke: #A80036; stroke-width: 1.0;"/><path d="M249.1633,313.3481 L248.0095,318.4199 L250.3254,318.4199 Z M247.6691,311.1069 L250.6657,311.1069 L254.0109,323.5 L251.5622,323.5 L250.7985,320.437 L247.5197,320.437 L246.7727,323.5 L244.3239,323.5 Z "/><text fill="#000000" font-family="sans-serif" font-size="12" font-style="italic" lengthAdjust="spacingAndGlyphs" textLength="51" x="266.95" y="322.5352">testCon2</text><line style="stroke: #A80036; stroke-width: 1.5;" x1="217.5" x2="337.5" y1="334" y2="334"/><ellipse cx="227.5" cy="345.9775" fill="none" rx="3" ry="3" style="stroke: #038048; stroke-width: 1.0;"/><text fill="#000000" font-family="sans-serif" font-size="11" lengthAdjust="spacingAndGlyphs" textLength="30" x="236.5" y="348.6348">test T</text><rect fill="none" height="6" style="stroke: #C82930; stroke-width: 1.0;" width="6" x="224.5" y="355.9326"/><text fill="#000000" font-family="sans-serif" font-size="11" lengthAdjust="spacingAndGlyphs" textLength="96" x="236.5" y="361.5898">OtherContract[] x</text><line style="stroke: #A80036; stroke-width: 1.5;" x1="217.5" x2="337.5" y1="367.9102" y2="367.9102"/><ellipse cx="227.5" cy="379.8877" fill="#84BE84" rx="3" ry="3" style="stroke: #038048; stroke-width: 1.0;"/><text fill="#000000" font-family="sans-serif" font-size="11" font-style="italic" lengthAdjust="spacingAndGlyphs" textLength="12" x="236.5" y="382.5449">f()</text><!--link testClass to test--><path d="M76.3355,66.4619 C88.7068,81.2472 103.5626,99.0016 117.7793,115.9924 " fill="none" id="testClass-test" style="stroke: #A80036; stroke-width: 1.0;"/><polygon fill="#FFFFFF" points="67.8109,56.2741,68.5935,63.4426,75.5116,65.4773,74.729,58.3088,67.8109,56.2741" style="stroke: #A80036; stroke-width: 1.0;"/><!--link OtherContract to test--><path d="M321.2515,68.1977 C301.6225,82.625 278.4436,99.6615 256.2246,115.9924 " fill="none" id="OtherContract-test" style="stroke: #A80036; stroke-width: 1.0;"/><polygon fill="none" points="317.2131,62.4785,337.4741,56.2741,325.5044,73.7592,317.2131,62.4785" style="stroke: #A80036; stroke-width: 1.0;"/><!--link AnotherContract to test--><path d="M181.6776,76.3059 C180.318,88.7967 178.8123,102.6307 177.358,115.9924 " fill="none" id="AnotherContract-test" style="stroke: #A80036; stroke-width: 1.0;"/><polygon fill="none" points="174.7348,75.3992,183.8579,56.2741,188.6526,76.9141,174.7348,75.3992" style="stroke: #A80036; stroke-width: 1.0;"/><!--link test to testCon2--><path d="M218.5206,253.7236 C229.1085,270.1992 239.9858,287.125 249.47,301.8833 " fill="none" id="test-testCon2" style="stroke: #A80036; stroke-width: 1.0;"/><polygon fill="#FFFFFF" points="211.2574,242.4215,211.1362,249.6316,217.745,252.5166,217.8662,245.3065,211.2574,242.4215" style="stroke: #A80036; stroke-width: 1.0;"/><!--link OtherContract to testCon2--><path d="M372.3287,69.3188 C373.1884,112.3157 370.7562,184.437 349.5,242 C341.6143,263.355 328.2529,284.4407 315.1663,301.9513 " fill="none" id="OtherContract-testCon2" style="stroke: #A80036; stroke-width: 1.0;"/><polygon fill="#FFFFFF" points="371.9436,56.1772,368.1212,62.2919,372.2953,68.172,376.1177,62.0574,371.9436,56.1772" style="stroke: #A80036; stroke-width: 1.0;"/><!--
@startuml

abstract class test{
	-uint256 a
	+uint b
	~uint c
	+uint256[] vector
	+f()=>(uint256[],uint256,testClass,testClass[])
	{abstract}#g(uint256[],uint256,testClass,testClass[])=>(testClass)
}
testClass o- - test
OtherContract <|- - test
AnotherContract <|- - test
abstract class testCon2{
	+test T
	-OtherContract[] x
	{abstract}+f()
}
test o- - testCon2
OtherContract o- - testCon2

@enduml

PlantUML version 1.2019.06(Sat May 25 03:10:25 AEST 2019)
(GPL source distribution)
Java Runtime: Java(TM) SE Runtime Environment
JVM: Java HotSpot(TM) 64-Bit Server VM
Java Version: 1.8.0_181-b13
Operating System: Mac OS X
OS Version: 10.13.6
Default Encoding: UTF-8
Language: en
Country: AU
--></g></svg>
