<?xml version="1.0" encoding="UTF-8" standalone="no"?><svg xmlns="http://www.w3.org/2000/svg" xmlns:xlink="http://www.w3.org/1999/xlink" contentScriptType="application/ecmascript" contentStyleType="text/css" height="291px" preserveAspectRatio="none" style="width:475px;height:291px;" version="1.1" viewBox="0 0 475 291" width="475px" zoomAndPan="magnify"><defs><filter height="300%" id="f17mqvsigvpj82" width="300%" x="-1" y="-1"><feGaussianBlur result="blurOut" stdDeviation="2.0"/><feColorMatrix in="blurOut" result="blurOut2" type="matrix" values="0 0 0 0 0 0 0 0 0 0 0 0 0 0 0 0 0 0 .4 0"/><feOffset dx="4.0" dy="4.0" in="blurOut2" result="blurOut3"/><feBlend in="SourceGraphic" in2="blurOut3" mode="normal"/></filter></defs><g><!--class test--><rect fill="#FEFECE" filter="url(#f17mqvsigvpj82)" height="125.7305" id="test" style="stroke: #A80036; stroke-width: 1.5;" width="323" x="6" y="155"/><ellipse cx="152.75" cy="171" fill="#A9DCDF" rx="11" ry="11" style="stroke: #A80036; stroke-width: 1.0;"/><path d="M152.8633,166.3481 L151.7095,171.4199 L154.0254,171.4199 Z M151.3691,164.1069 L154.3657,164.1069 L157.7109,176.5 L155.2622,176.5 L154.4985,173.437 L151.2197,173.437 L150.4727,176.5 L148.0239,176.5 Z "/><text fill="#000000" font-family="sans-serif" font-size="12" font-style="italic" lengthAdjust="spacingAndGlyphs" textLength="21" x="173.25" y="175.5352">test</text><line style="stroke: #A80036; stroke-width: 1.5;" x1="7" x2="328" y1="187" y2="187"/><rect fill="none" height="6" style="stroke: #C82930; stroke-width: 1.0;" width="6" x="14" y="195.9775"/><text fill="#000000" font-family="sans-serif" font-size="11" lengthAdjust="spacingAndGlyphs" textLength="51" x="26" y="201.6348">uint256 a</text><ellipse cx="17" cy="211.9326" fill="none" rx="3" ry="3" style="stroke: #038048; stroke-width: 1.0;"/><text fill="#000000" font-family="sans-serif" font-size="11" lengthAdjust="spacingAndGlyphs" textLength="31" x="26" y="214.5898">uint b</text><polygon fill="none" points="17,220.8877,13,226.8877,21,226.8877" style="stroke: #1963A0; stroke-width: 1.0;"/><text fill="#000000" font-family="sans-serif" font-size="11" lengthAdjust="spacingAndGlyphs" textLength="30" x="26" y="227.5449">uint c</text><ellipse cx="17" cy="237.8428" fill="none" rx="3" ry="3" style="stroke: #038048; stroke-width: 1.0;"/><text fill="#000000" font-family="sans-serif" font-size="11" lengthAdjust="spacingAndGlyphs" textLength="87" x="26" y="240.5">uint256[] vector</text><line style="stroke: #A80036; stroke-width: 1.5;" x1="7" x2="328" y1="246.8203" y2="246.8203"/><ellipse cx="17" cy="258.7979" fill="#84BE84" rx="3" ry="3" style="stroke: #038048; stroke-width: 1.0;"/><text fill="#000000" font-family="sans-serif" font-size="11" lengthAdjust="spacingAndGlyphs" textLength="245" x="26" y="261.4551">f()=&gt;(uint256[],uint256,testClass,testClass[])</text><polygon fill="#FFFF44" points="17,266.7529,21,270.7529,17,274.7529,13,270.7529" style="stroke: #B38D22; stroke-width: 1.0;"/><text fill="#000000" font-family="sans-serif" font-size="11" font-style="italic" lengthAdjust="spacingAndGlyphs" textLength="297" x="26" y="274.4102">g(uint256[],uint256,testClass,testClass[])=&gt;(testClass)</text><!--class OtherContract--><rect fill="#FEFECE" filter="url(#f17mqvsigvpj82)" height="48" id="OtherContract" style="stroke: #A80036; stroke-width: 1.5;" width="112" x="34.5" y="27.5"/><ellipse cx="49.5" cy="43.5" fill="#ADD1B2" rx="11" ry="11" style="stroke: #A80036; stroke-width: 1.0;"/><path d="M52.4731,49.1431 Q51.8921,49.4419 51.2529,49.5913 Q50.6138,49.7407 49.9082,49.7407 Q47.4014,49.7407 46.0815,48.0889 Q44.7617,46.437 44.7617,43.3159 Q44.7617,40.1865 46.0815,38.5347 Q47.4014,36.8828 49.9082,36.8828 Q50.6138,36.8828 51.2612,37.0322 Q51.9087,37.1816 52.4731,37.4805 L52.4731,40.2031 Q51.8423,39.6221 51.2488,39.3523 Q50.6553,39.0825 50.0244,39.0825 Q48.6797,39.0825 47.9949,40.1492 Q47.3101,41.2158 47.3101,43.3159 Q47.3101,45.4077 47.9949,46.4744 Q48.6797,47.541 50.0244,47.541 Q50.6553,47.541 51.2488,47.2712 Q51.8423,47.0015 52.4731,46.4204 Z "/><text fill="#000000" font-family="sans-serif" font-size="12" lengthAdjust="spacingAndGlyphs" textLength="80" x="63.5" y="48.0352">OtherContract</text><line style="stroke: #A80036; stroke-width: 1.5;" x1="35.5" x2="145.5" y1="59.5" y2="59.5"/><line style="stroke: #A80036; stroke-width: 1.5;" x1="35.5" x2="145.5" y1="67.5" y2="67.5"/><!--class AnotherContract--><rect fill="#FEFECE" filter="url(#f17mqvsigvpj82)" height="48" id="AnotherContract" style="stroke: #A80036; stroke-width: 1.5;" width="125" x="182" y="27.5"/><ellipse cx="197" cy="43.5" fill="#ADD1B2" rx="11" ry="11" style="stroke: #A80036; stroke-width: 1.0;"/><path d="M199.9731,49.1431 Q199.3921,49.4419 198.7529,49.5913 Q198.1138,49.7407 197.4082,49.7407 Q194.9014,49.7407 193.5815,48.0889 Q192.2617,46.437 192.2617,43.3159 Q192.2617,40.1865 193.5815,38.5347 Q194.9014,36.8828 197.4082,36.8828 Q198.1138,36.8828 198.7612,37.0322 Q199.4087,37.1816 199.9731,37.4805 L199.9731,40.2031 Q199.3423,39.6221 198.7488,39.3523 Q198.1553,39.0825 197.5244,39.0825 Q196.1797,39.0825 195.4949,40.1492 Q194.8101,41.2158 194.8101,43.3159 Q194.8101,45.4077 195.4949,46.4744 Q196.1797,47.541 197.5244,47.541 Q198.1553,47.541 198.7488,47.2712 Q199.3423,47.0015 199.9731,46.4204 Z "/><text fill="#000000" font-family="sans-serif" font-size="12" lengthAdjust="spacingAndGlyphs" textLength="93" x="211" y="48.0352">AnotherContract</text><line style="stroke: #A80036; stroke-width: 1.5;" x1="183" x2="306" y1="59.5" y2="59.5"/><line style="stroke: #A80036; stroke-width: 1.5;" x1="183" x2="306" y1="67.5" y2="67.5"/><!--class testCon2--><rect fill="#FEFECE" filter="url(#f17mqvsigvpj82)" height="86.8652" id="testCon2" style="stroke: #A80036; stroke-width: 1.5;" width="122" x="342.5" y="8"/><ellipse cx="375.05" cy="24" fill="#A9DCDF" rx="11" ry="11" style="stroke: #A80036; stroke-width: 1.0;"/><path d="M375.1633,19.3481 L374.0095,24.4199 L376.3254,24.4199 Z M373.6691,17.1069 L376.6657,17.1069 L380.0109,29.5 L377.5622,29.5 L376.7985,26.437 L373.5197,26.437 L372.7727,29.5 L370.3239,29.5 Z "/><text fill="#000000" font-family="sans-serif" font-size="12" font-style="italic" lengthAdjust="spacingAndGlyphs" textLength="51" x="392.95" y="28.5352">testCon2</text><line style="stroke: #A80036; stroke-width: 1.5;" x1="343.5" x2="463.5" y1="40" y2="40"/><ellipse cx="353.5" cy="51.9775" fill="none" rx="3" ry="3" style="stroke: #038048; stroke-width: 1.0;"/><text fill="#000000" font-family="sans-serif" font-size="11" lengthAdjust="spacingAndGlyphs" textLength="30" x="362.5" y="54.6348">test T</text><rect fill="none" height="6" style="stroke: #C82930; stroke-width: 1.0;" width="6" x="350.5" y="61.9326"/><text fill="#000000" font-family="sans-serif" font-size="11" lengthAdjust="spacingAndGlyphs" textLength="96" x="362.5" y="67.5898">OtherContract[] x</text><line style="stroke: #A80036; stroke-width: 1.5;" x1="343.5" x2="463.5" y1="73.9102" y2="73.9102"/><ellipse cx="353.5" cy="85.8877" fill="#84BE84" rx="3" ry="3" style="stroke: #038048; stroke-width: 1.0;"/><text fill="#000000" font-family="sans-serif" font-size="11" font-style="italic" lengthAdjust="spacingAndGlyphs" textLength="12" x="362.5" y="88.5449">f()</text><!--link OtherContract to test--><path d="M110.2128,94.1258 C118.7587,112.605 128.9407,134.6218 138.3339,154.9329 " fill="none" id="OtherContract-test" style="stroke: #A80036; stroke-width: 1.0;"/><polygon fill="none" points="103.738,96.8016,101.6965,75.7105,116.445,90.9251,103.738,96.8016" style="stroke: #A80036; stroke-width: 1.0;"/><!--link AnotherContract to test--><path d="M224.7872,94.1258 C216.2413,112.605 206.0593,134.6218 196.6661,154.9329 " fill="none" id="AnotherContract-test" style="stroke: #A80036; stroke-width: 1.0;"/><polygon fill="none" points="218.555,90.9251,233.3035,75.7105,231.262,96.8016,218.555,90.9251" style="stroke: #A80036; stroke-width: 1.0;"/><!--
@startuml
abstract class test{
	-uint256 a
	+uint b
	~uint c
	+uint256[] vector
	+f()=>(uint256[],uint256,testClass,testClass[])
	{abstract}#g(uint256[],uint256,testClass,testClass[])=>(testClass)
}
OtherContract <|- - test
AnotherContract <|- - test

abstract class testCon2{
	+test T
	-OtherContract[] x
	{abstract}+f()
}

@enduml

PlantUML version 1.2019.06(Sat May 25 03:10:25 AEST 2019)
(GPL source distribution)
Java Runtime: Java(TM) SE Runtime Environment
JVM: Java HotSpot(TM) 64-Bit Server VM
Java Version: 1.8.0_181-b13
Operating System: Mac OS X
OS Version: 10.13.6
Default Encoding: UTF-8
Language: en
Country: AU
--></g></svg>