<?xml version="1.0" encoding="UTF-8" standalone="no"?><svg xmlns="http://www.w3.org/2000/svg" xmlns:xlink="http://www.w3.org/1999/xlink" contentScriptType="application/ecmascript" contentStyleType="text/css" height="412px" preserveAspectRatio="none" style="width:523px;height:412px;" version="1.1" viewBox="0 0 523 412" width="523px" zoomAndPan="magnify"><defs><filter height="300%" id="fae7dtepy3ib8" width="300%" x="-1" y="-1"><feGaussianBlur result="blurOut" stdDeviation="2.0"/><feColorMatrix in="blurOut" result="blurOut2" type="matrix" values="0 0 0 0 0 0 0 0 0 0 0 0 0 0 0 0 0 0 .4 0"/><feOffset dx="4.0" dy="4.0" in="blurOut2" result="blurOut3"/><feBlend in="SourceGraphic" in2="blurOut3" mode="normal"/></filter></defs><g><!--class test--><rect fill="#FEFECE" filter="url(#fae7dtepy3ib8)" height="125.7305" id="test" style="stroke: #A80036; stroke-width: 1.5;" width="323" x="9" y="116"/><ellipse cx="155.75" cy="132" fill="#A9DCDF" rx="11" ry="11" style="stroke: #A80036; stroke-width: 1.0;"/><path d="M155.8633,127.3481 L154.7095,132.4199 L157.0254,132.4199 Z M154.3691,125.1069 L157.3657,125.1069 L160.7109,137.5 L158.2622,137.5 L157.4985,134.437 L154.2197,134.437 L153.4727,137.5 L151.0239,137.5 Z "/><text fill="#000000" font-family="sans-serif" font-size="12" font-style="italic" lengthAdjust="spacingAndGlyphs" textLength="21" x="176.25" y="136.5352">test</text><line style="stroke: #A80036; stroke-width: 1.5;" x1="10" x2="331" y1="148" y2="148"/><rect fill="none" height="6" style="stroke: #C82930; stroke-width: 1.0;" width="6" x="17" y="156.9775"/><text fill="#000000" font-family="sans-serif" font-size="11" lengthAdjust="spacingAndGlyphs" textLength="51" x="29" y="162.6348">uint256 a</text><ellipse cx="20" cy="172.9326" fill="none" rx="3" ry="3" style="stroke: #038048; stroke-width: 1.0;"/><text fill="#000000" font-family="sans-serif" font-size="11" lengthAdjust="spacingAndGlyphs" textLength="31" x="29" y="175.5898">uint b</text><polygon fill="none" points="20,181.8877,16,187.8877,24,187.8877" style="stroke: #1963A0; stroke-width: 1.0;"/><text fill="#000000" font-family="sans-serif" font-size="11" lengthAdjust="spacingAndGlyphs" textLength="30" x="29" y="188.5449">uint c</text><ellipse cx="20" cy="198.8428" fill="none" rx="3" ry="3" style="stroke: #038048; stroke-width: 1.0;"/><text fill="#000000" font-family="sans-serif" font-size="11" lengthAdjust="spacingAndGlyphs" textLength="87" x="29" y="201.5">uint256[] vector</text><line style="stroke: #A80036; stroke-width: 1.5;" x1="10" x2="331" y1="207.8203" y2="207.8203"/><ellipse cx="20" cy="219.7979" fill="#84BE84" rx="3" ry="3" style="stroke: #038048; stroke-width: 1.0;"/><text fill="#000000" font-family="sans-serif" font-size="11" lengthAdjust="spacingAndGlyphs" textLength="245" x="29" y="222.4551">f()=&gt;(uint256[],uint256,testClass,testClass[])</text><polygon fill="#FFFF44" points="20,227.7529,24,231.7529,20,235.7529,16,231.7529" style="stroke: #B38D22; stroke-width: 1.0;"/><text fill="#000000" font-family="sans-serif" font-size="11" font-style="italic" lengthAdjust="spacingAndGlyphs" textLength="297" x="29" y="235.4102">g(uint256[],uint256,testClass,testClass[])=&gt;(testClass)</text><!--class testClass--><rect fill="#FEFECE" filter="url(#fae7dtepy3ib8)" height="48" id="testClass" style="stroke: #A80036; stroke-width: 1.5;" width="83" x="6" y="8"/><ellipse cx="21" cy="24" fill="#ADD1B2" rx="11" ry="11" style="stroke: #A80036; stroke-width: 1.0;"/><path d="M23.9731,29.6431 Q23.3921,29.9419 22.7529,30.0913 Q22.1138,30.2407 21.4082,30.2407 Q18.9014,30.2407 17.5815,28.5889 Q16.2617,26.937 16.2617,23.8159 Q16.2617,20.6865 17.5815,19.0347 Q18.9014,17.3828 21.4082,17.3828 Q22.1138,17.3828 22.7612,17.5322 Q23.4087,17.6816 23.9731,17.9805 L23.9731,20.7031 Q23.3423,20.1221 22.7488,19.8523 Q22.1553,19.5825 21.5244,19.5825 Q20.1797,19.5825 19.4949,20.6492 Q18.8101,21.7158 18.8101,23.8159 Q18.8101,25.9077 19.4949,26.9744 Q20.1797,28.041 21.5244,28.041 Q22.1553,28.041 22.7488,27.7712 Q23.3423,27.5015 23.9731,26.9204 Z "/><text fill="#000000" font-family="sans-serif" font-size="12" lengthAdjust="spacingAndGlyphs" textLength="51" x="35" y="28.5352">testClass</text><line style="stroke: #A80036; stroke-width: 1.5;" x1="7" x2="88" y1="40" y2="40"/><line style="stroke: #A80036; stroke-width: 1.5;" x1="7" x2="88" y1="48" y2="48"/><!--class OtherContract--><rect fill="#FEFECE" filter="url(#fae7dtepy3ib8)" height="48" id="OtherContract" style="stroke: #A80036; stroke-width: 1.5;" width="112" x="314.5" y="8"/><ellipse cx="329.5" cy="24" fill="#ADD1B2" rx="11" ry="11" style="stroke: #A80036; stroke-width: 1.0;"/><path d="M332.4731,29.6431 Q331.8921,29.9419 331.2529,30.0913 Q330.6138,30.2407 329.9082,30.2407 Q327.4014,30.2407 326.0815,28.5889 Q324.7617,26.937 324.7617,23.8159 Q324.7617,20.6865 326.0815,19.0347 Q327.4014,17.3828 329.9082,17.3828 Q330.6138,17.3828 331.2612,17.5322 Q331.9087,17.6816 332.4731,17.9805 L332.4731,20.7031 Q331.8423,20.1221 331.2488,19.8523 Q330.6553,19.5825 330.0244,19.5825 Q328.6797,19.5825 327.9949,20.6492 Q327.3101,21.7158 327.3101,23.8159 Q327.3101,25.9077 327.9949,26.9744 Q328.6797,28.041 330.0244,28.041 Q330.6553,28.041 331.2488,27.7712 Q331.8423,27.5015 332.4731,26.9204 Z "/><text fill="#000000" font-family="sans-serif" font-size="12" lengthAdjust="spacingAndGlyphs" textLength="80" x="343.5" y="28.5352">OtherContract</text><line style="stroke: #A80036; stroke-width: 1.5;" x1="315.5" x2="425.5" y1="40" y2="40"/><line style="stroke: #A80036; stroke-width: 1.5;" x1="315.5" x2="425.5" y1="48" y2="48"/><!--class AnotherContract--><rect fill="#FEFECE" filter="url(#fae7dtepy3ib8)" height="48" id="AnotherContract" style="stroke: #A80036; stroke-width: 1.5;" width="125" x="124" y="8"/><ellipse cx="139" cy="24" fill="#ADD1B2" rx="11" ry="11" style="stroke: #A80036; stroke-width: 1.0;"/><path d="M141.9731,29.6431 Q141.3921,29.9419 140.7529,30.0913 Q140.1138,30.2407 139.4082,30.2407 Q136.9014,30.2407 135.5815,28.5889 Q134.2617,26.937 134.2617,23.8159 Q134.2617,20.6865 135.5815,19.0347 Q136.9014,17.3828 139.4082,17.3828 Q140.1138,17.3828 140.7612,17.5322 Q141.4087,17.6816 141.9731,17.9805 L141.9731,20.7031 Q141.3423,20.1221 140.7488,19.8523 Q140.1553,19.5825 139.5244,19.5825 Q138.1797,19.5825 137.4949,20.6492 Q136.8101,21.7158 136.8101,23.8159 Q136.8101,25.9077 137.4949,26.9744 Q138.1797,28.041 139.5244,28.041 Q140.1553,28.041 140.7488,27.7712 Q141.3423,27.5015 141.9731,26.9204 Z "/><text fill="#000000" font-family="sans-serif" font-size="12" lengthAdjust="spacingAndGlyphs" textLength="93" x="153" y="28.5352">AnotherContract</text><line style="stroke: #A80036; stroke-width: 1.5;" x1="125" x2="248" y1="40" y2="40"/><line style="stroke: #A80036; stroke-width: 1.5;" x1="125" x2="248" y1="48" y2="48"/><!--class Lib--><rect fill="#FEFECE" filter="url(#fae7dtepy3ib8)" height="67.2207" id="Lib" style="stroke: #A80036; stroke-width: 1.5;" width="73" x="439" y="145.5"/><ellipse cx="461.2" cy="164.6328" fill="#ADD8E6" rx="11" ry="11" style="stroke: #A80036; stroke-width: 1.0;"/><path d="M458.0677,170.6328 L458.0677,158.2397 L460.5164,158.2397 L460.5164,168.4746 L465.7542,168.4746 L465.7542,170.6328 Z "/><text fill="#000000" font-family="sans-serif" font-size="12" font-style="italic" lengthAdjust="spacingAndGlyphs" textLength="29" x="474.8" y="162.1016">«Lib»</text><text fill="#000000" font-family="sans-serif" font-size="12" lengthAdjust="spacingAndGlyphs" textLength="17" x="480.8" y="176.2344">Lib</text><line style="stroke: #A80036; stroke-width: 1.5;" x1="440" x2="511" y1="183.7656" y2="183.7656"/><line style="stroke: #A80036; stroke-width: 1.5;" x1="440" x2="511" y1="191.7656" y2="191.7656"/><ellipse cx="450" cy="203.7432" fill="#84BE84" rx="3" ry="3" style="stroke: #038048; stroke-width: 1.0;"/><text fill="#000000" font-family="sans-serif" font-size="11" lengthAdjust="spacingAndGlyphs" textLength="47" x="459" y="206.4004">libFunc()</text><!--class testCon2--><rect fill="#FEFECE" filter="url(#fae7dtepy3ib8)" height="99.8203" id="testCon2" style="stroke: #A80036; stroke-width: 1.5;" width="122" x="324.5" y="302"/><ellipse cx="357.05" cy="318" fill="#ADD1B2" rx="11" ry="11" style="stroke: #A80036; stroke-width: 1.0;"/><path d="M360.0231,323.6431 Q359.4421,323.9419 358.8029,324.0913 Q358.1638,324.2407 357.4582,324.2407 Q354.9514,324.2407 353.6315,322.5889 Q352.3117,320.937 352.3117,317.8159 Q352.3117,314.6865 353.6315,313.0347 Q354.9514,311.3828 357.4582,311.3828 Q358.1638,311.3828 358.8112,311.5322 Q359.4587,311.6816 360.0231,311.9805 L360.0231,314.7031 Q359.3923,314.1221 358.7988,313.8523 Q358.2053,313.5825 357.5744,313.5825 Q356.2297,313.5825 355.5449,314.6492 Q354.8601,315.7158 354.8601,317.8159 Q354.8601,319.9077 355.5449,320.9744 Q356.2297,322.041 357.5744,322.041 Q358.2053,322.041 358.7988,321.7712 Q359.3923,321.5015 360.0231,320.9204 Z "/><text fill="#000000" font-family="sans-serif" font-size="12" lengthAdjust="spacingAndGlyphs" textLength="51" x="374.95" y="322.5352">testCon2</text><line style="stroke: #A80036; stroke-width: 1.5;" x1="325.5" x2="445.5" y1="334" y2="334"/><ellipse cx="335.5" cy="345.9775" fill="none" rx="3" ry="3" style="stroke: #038048; stroke-width: 1.0;"/><text fill="#000000" font-family="sans-serif" font-size="11" lengthAdjust="spacingAndGlyphs" textLength="30" x="344.5" y="348.6348">test T</text><rect fill="none" height="6" style="stroke: #C82930; stroke-width: 1.0;" width="6" x="332.5" y="355.9326"/><text fill="#000000" font-family="sans-serif" font-size="11" lengthAdjust="spacingAndGlyphs" textLength="96" x="344.5" y="361.5898">OtherContract[] x</text><line style="stroke: #A80036; stroke-width: 1.5;" x1="325.5" x2="445.5" y1="367.9102" y2="367.9102"/><ellipse cx="335.5" cy="379.8877" fill="#84BE84" rx="3" ry="3" style="stroke: #038048; stroke-width: 1.0;"/><text fill="#000000" font-family="sans-serif" font-size="11" lengthAdjust="spacingAndGlyphs" textLength="12" x="344.5" y="382.5449">f()</text><ellipse cx="335.5" cy="392.8428" fill="#84BE84" rx="3" ry="3" style="stroke: #038048; stroke-width: 1.0;"/><text fill="#000000" font-family="sans-serif" font-size="11" lengthAdjust="spacingAndGlyphs" text-decoration="underline" textLength="49" x="344.5" y="395.5">fallback()</text><!--link testClass to test--><path d="M76.3355,66.4619 C88.7068,81.2472 103.5626,99.0016 117.7793,115.9924 " fill="none" id="testClass-test" style="stroke: #A80036; stroke-width: 1.0;"/><polygon fill="#FFFFFF" points="67.8109,56.2741,68.5935,63.4426,75.5116,65.4773,74.729,58.3088,67.8109,56.2741" style="stroke: #A80036; stroke-width: 1.0;"/><!--link OtherContract to test--><path d="M321.2515,68.1977 C301.6225,82.625 278.4436,99.6615 256.2246,115.9924 " fill="none" id="OtherContract-test" style="stroke: #A80036; stroke-width: 1.0;"/><polygon fill="none" points="317.2131,62.4785,337.4741,56.2741,325.5044,73.7592,317.2131,62.4785" style="stroke: #A80036; stroke-width: 1.0;"/><!--link AnotherContract to test--><path d="M181.6776,76.3059 C180.318,88.7967 178.8123,102.6307 177.358,115.9924 " fill="none" id="AnotherContract-test" style="stroke: #A80036; stroke-width: 1.0;"/><polygon fill="none" points="174.7348,75.3992,183.8579,56.2741,188.6526,76.9141,174.7348,75.3992" style="stroke: #A80036; stroke-width: 1.0;"/><!--link Lib to testCon2--><path d="M450.8921,226.3019 C438.6869,249.7629 423.9436,278.1029 411.5478,301.9304 " fill="none" id="Lib-testCon2" style="stroke: #A80036; stroke-width: 1.0; stroke-dasharray: 7.0,7.0;"/><ellipse cx="454.2413" cy="219.8639" fill="#FFFFFF" rx="8" ry="8" style="stroke: #A80036; stroke-width: 1.0;"/><line style="stroke: #A80036; stroke-width: 1.0;" x1="450.5492" x2="457.9334" y1="226.9609" y2="212.7668"/><line style="stroke: #A80036; stroke-width: 1.0;" x1="447.1442" x2="461.3384" y1="216.1718" y2="223.556"/><text fill="#000000" font-family="sans-serif" font-size="13" lengthAdjust="spacingAndGlyphs" textLength="35" x="416.2488" y="233.2102">using</text><text fill="#000000" font-family="sans-serif" font-size="13" lengthAdjust="spacingAndGlyphs" textLength="71" x="339.1595" y="291.0792">for uint256</text><!--link test to testCon2--><path d="M259.3271,250.4748 C281.1947,268.0706 304.1257,286.522 324.3497,302.7953 " fill="none" id="test-testCon2" style="stroke: #A80036; stroke-width: 1.0;"/><polygon fill="#FFFFFF" points="249.0326,242.1913,251.1995,249.0691,258.3817,249.7142,256.2148,242.8364,249.0326,242.1913" style="stroke: #A80036; stroke-width: 1.0;"/><!--link OtherContract to testCon2--><path d="M372.2409,69.1392 C374.9371,126.658 380.1266,237.3671 383.1519,301.9066 " fill="none" id="OtherContract-testCon2" style="stroke: #A80036; stroke-width: 1.0;"/><polygon fill="#FFFFFF" points="371.6274,56.052,367.9127,62.2327,372.1893,68.0388,375.904,61.8581,371.6274,56.052" style="stroke: #A80036; stroke-width: 1.0;"/><!--
@startuml

abstract class test {
	-uint256 a
	+uint b
	~uint c
	+uint256[] vector
	+f()=>(uint256[],uint256,testClass,testClass[])
	{abstract}#g(uint256[],uint256,testClass,testClass[])=>(testClass)
}
testClass o- - test
OtherContract <|- - test
AnotherContract <|- - test
class Lib<<(L,lightblue) Lib>> {
	+libFunc()
}

class testCon2 {
	+test T
	-OtherContract[] x
	+f()
	+{static}fallback()
}
Lib "using" +.. "for uint256" testCon2
test o- - testCon2
OtherContract o- - testCon2

@enduml

PlantUML version 1.2019.06(Sat May 25 03:10:25 AEST 2019)
(GPL source distribution)
Java Runtime: Java(TM) SE Runtime Environment
JVM: Java HotSpot(TM) 64-Bit Server VM
Java Version: 1.8.0_181-b13
Operating System: Mac OS X
OS Version: 10.13.6
Default Encoding: UTF-8
Language: en
Country: AU
--></g></svg>
